<svg xmlns="http://www.w3.org/2000/svg" width="183.696" height="101.786" viewBox="0 0 183.696 101.786">
  <g id="logo" transform="translate(-332.067 -212.108)">
    <g id="Group_11" data-name="Group 11" transform="translate(396.763 244.641)">
      <text id="DIAMONDS" transform="translate(0 19)" fill="#fff" font-size="20" font-family="Didot-Bold, Didot" font-weight="700"><tspan x="0" y="0">DIAMONDS</tspan></text>
      <text id="FOR_YOU" data-name="FOR YOU" transform="translate(61.432 34.124)" fill="#fff" font-size="10" font-family="Didot" letter-spacing="0.09em"><tspan x="-26.08" y="0">FOR YOU</tspan></text>
    </g>
    <line id="Line_11" data-name="Line 11" y2="101.786" transform="translate(390.321 212.108)" fill="none" stroke="#fff" stroke-width="1"/>
    <path id="Path_4" data-name="Path 4" d="M418.058,223.664a.678.678,0,0,1-.121-.206.44.44,0,0,1-.025-.121.662.662,0,0,1-.031-.142.406.406,0,0,1,.01-.052c0-.015-.005-.031-.005-.045.005-.03.026-.054.031-.084a.955.955,0,0,1,.062-.178.864.864,0,0,1,.071-.1.8.8,0,0,1,.134-.138c.019-.014.032-.037.05-.05l27.9-17.882a.216.216,0,0,1,.042-.019.537.537,0,0,0,.048-.026l.055-.022c.026-.008.048-.019.073-.026a.544.544,0,0,1,.068-.01l.019,0a.38.38,0,0,1,.066-.009c.013,0,.026-.006.037-.006l22.135-.075h.005l.01,0a.327.327,0,0,1,.035.005.67.67,0,0,1,.151.032.815.815,0,0,1,.111.027H469l.021.014a.951.951,0,0,1,.106.076.841.841,0,0,1,.111.08l.024.032a.223.223,0,0,0,.021.015.594.594,0,0,1,.043.086.919.919,0,0,1,.071.112c.005.015.008.03.013.045a1.017,1.017,0,0,1,.024.138.627.627,0,0,1,.021.1v.022l.114,33.709.127,37.628,0,0,0,.028a.724.724,0,0,1-.048.236c-.01.028-.022.048-.035.076a.723.723,0,0,1-.1.156c-.021.023-.037.043-.061.066a.888.888,0,0,1-.187.128c-.014,0-.019.015-.035.021l-.008,0h0a.767.767,0,0,1-.283.058.711.711,0,0,1-.269-.058c-.026-.008-.046-.021-.071-.03a.83.83,0,0,1-.187-.131l-.035-.026L446.412,253.8v0l-.409-.43h0l-7.979-8.477h0l-19.915-21.155,0,0-.015-.017C418.077,223.7,418.071,223.681,418.058,223.664Zm20.214,19.253,1.027-2.708-8.249-16.291-10.63.037Zm25.2,26.77.7-2.482L453.3,241.141l-5.417,11.988Zm-14.683-47.364,9.283-.031-3.448-4.692Zm4.927-5.962-6.4-8.709v13.885Zm6.258,5.926h.166l6.513-14.419-10.833,8.765Zm7.955-13.514-6.1,13.507,6.147-.021Zm.053,15.022-6.849.023-.013.028,6.893,9.381Zm.04,12.04-7.629-10.383-6.224,13.773,10.682,25.608,3.229-11.373Zm-8.671-11.8-.151-.209-11.437.039,5.6,13.424Zm-12.031,2.756v23.873l5.177-11.459Zm-1.537.661-4.807,12.672,4.807,9.492Zm-.285-3.579-12.726.044,7.266,14.352Zm-1.1-1.531-6.738-5.28-4.48,5.317Zm1.385-.866V207.415l-7.134,8.468ZM442.7,208.69l-7.274,4.664,2.015,1.581Zm12.213,6.7,11.6-9.382-18.444.062ZM468.1,259.019l-2.3,8.091,2.342,5.619Zm-2.972,10.465-.428,1.507,1.9,2.01Zm-24.89-27.422-.792,2.1,4.016,4.269Zm-9.072-19.678,5.285-6.273-2.4-1.879-12.768,8.185Z" transform="translate(-85.815 22.083)" fill="#fff"/>
  </g>
</svg>
