<svg xmlns="http://www.w3.org/2000/svg" width="152.213" height="79" viewBox="0 0 152.213 79">
  <g id="logo" transform="translate(-332.067 -212.108)">
    <g id="Group_11" data-name="Group 11" transform="translate(2 -28.79)">
      <text id="DIAMONDS" transform="translate(380.28 282.148)" font-size="17" font-family="Didot-Bold, Didot" font-weight="700"><tspan x="0" y="0">DIAMONDS</tspan></text>
      <text id="FOR_YOU" data-name="FOR YOU" transform="translate(430.78 293.648)" font-size="9" font-family="Didot" letter-spacing="0.09em"><tspan x="-23.472" y="0">FOR YOU</tspan></text>
    </g>
    <line id="Line_11" data-name="Line 11" y2="79" transform="translate(377.28 212.108)" fill="none" stroke="#cdb277" stroke-width="1"/>
    <path id="Path_4" data-name="Path 4" d="M418.019,219.367a.527.527,0,0,1-.094-.16.343.343,0,0,1-.019-.094.514.514,0,0,1-.024-.11.317.317,0,0,1,.008-.04c0-.012,0-.024,0-.035s.02-.042.024-.065a.749.749,0,0,1,.048-.138.665.665,0,0,1,.055-.08.619.619,0,0,1,.1-.107c.015-.011.025-.029.039-.039L439.81,204.62a.165.165,0,0,1,.033-.015.415.415,0,0,0,.037-.02l.043-.017c.02-.006.037-.015.057-.02a.422.422,0,0,1,.053-.008l.015,0a.3.3,0,0,1,.051-.007c.01,0,.02-.005.029-.005l17.18-.058h0l.008,0a.253.253,0,0,1,.027,0,.52.52,0,0,1,.117.025.634.634,0,0,1,.086.021h.006l.016.011a.735.735,0,0,1,.082.059.647.647,0,0,1,.086.062l.019.025a.162.162,0,0,0,.016.012.463.463,0,0,1,.033.067.706.706,0,0,1,.055.087c0,.012.006.023.01.035a.8.8,0,0,1,.019.107.49.49,0,0,1,.016.078v.017L458,231.243l.1,29.2,0,0,0,.022a.563.563,0,0,1-.037.183c-.008.022-.017.037-.027.059a.563.563,0,0,1-.08.121c-.016.018-.029.033-.047.051a.687.687,0,0,1-.145.1c-.011,0-.015.012-.027.016l-.006,0h0a.6.6,0,0,1-.22.045.552.552,0,0,1-.209-.045c-.02-.006-.036-.016-.055-.023a.642.642,0,0,1-.145-.1l-.027-.02-17.039-18.1v0l-.317-.334h0l-6.193-6.579h0l-15.457-16.419,0,0-.012-.013C418.033,219.4,418.029,219.38,418.019,219.367Zm15.689,14.943.8-2.1-6.4-12.644-8.25.029Zm19.557,20.777.547-1.926-8.439-20.23-4.2,9.3Zm-11.4-36.761,7.2-.024L446.4,214.66Zm3.824-4.627-4.965-6.759v10.777Zm4.857,4.6h.129l5.055-11.191-8.408,6.8Zm6.174-10.489-4.736,10.483,4.771-.016Zm.041,11.659-5.316.018-.01.022,5.35,7.281Zm.031,9.345-5.921-8.059-4.831,10.69,8.291,19.875,2.506-8.827Zm-6.73-9.161-.117-.162-8.877.03,4.346,10.419Zm-9.338,2.139V240.32l4.018-8.894Zm-1.193.513-3.731,9.835,3.731,7.367Zm-.221-2.778-9.877.034,5.639,11.139Zm-.854-1.188-5.23-4.1-3.477,4.127Zm1.075-.672V206.755L434,213.327Zm-2.393-9.921-5.646,3.62,1.564,1.227Zm9.479,5.2,9-7.282-14.315.048Zm10.236,33.859-1.783,6.28,1.818,4.361Zm-2.307,8.122-.332,1.17,1.471,1.56Zm-19.318-21.283-.615,1.628,3.117,3.313Zm-7.041-15.273,4.1-4.869-1.86-1.458-9.91,6.353Z" transform="translate(-85.815 18.85)" fill="#cdb277"/>
  </g>
</svg>
